<?xml version="1.0" encoding="utf-8"?>
<!-- Generator: Adobe Illustrator 26.0.2, SVG Export Plug-In . SVG Version: 6.00 Build 0)  -->
<svg version="1.1" id="Layer_1" xmlns="http://www.w3.org/2000/svg" xmlns:xlink="http://www.w3.org/1999/xlink" x="0px" y="0px"
	 viewBox="0 0 1200 1200" style="enable-background:new 0 0 1200 1200;" xml:space="preserve">
<style type="text/css">
	.st0{fill-rule:evenodd;clip-rule:evenodd;fill:#E31D93;}
	.st1{fill:#00ADEE;}
	.st2{fill:url(#SVGID_1_);}
	.st3{fill:url(#SVGID_00000137843600352267836370000000508427676567133597_);}
	.st4{fill-rule:evenodd;clip-rule:evenodd;fill:#FFFFFF;stroke:#FFFFFF;stroke-width:0.1701;stroke-miterlimit:10;}
	.st5{fill:#FFFFFF;}
</style>
<g>
	<polygon class="st0" points="1118.65,407.66 879.45,407.66 876.58,407.83 873.7,408.27 870.91,409.04 868.2,410.05 865.6,411.27 
		863.01,412.68 860.54,414.26 858.08,415.96 855.69,417.82 853.34,419.77 850.99,421.79 848.68,423.86 846.38,425.92 844.11,428.07 
		600.09,664.11 356.11,428.07 353.85,425.92 351.5,423.86 349.23,421.79 346.88,419.77 344.49,417.82 342.11,415.96 339.64,414.26 
		337.13,412.68 334.58,411.27 331.95,410.05 329.23,409.04 326.48,408.27 323.61,407.83 320.73,407.66 81.57,407.66 78.9,407.83 
		76.27,408.31 73.72,409.12 71.37,410.21 69.14,411.55 67.12,413.17 65.3,414.99 63.72,417.01 62.34,419.24 61.29,421.59 
		60.48,424.1 60,426.73 59.83,429.44 59.95,432.03 60.44,434.5 61.17,436.93 62.18,439.16 63.44,441.22 64.89,443.17 66.55,444.91 
		564.67,919.42 567.71,922.09 570.9,924.48 574.26,926.63 577.79,928.45 581.35,930.03 584.99,931.28 588.72,932.25 592.48,932.98 
		596.25,933.39 600.09,933.55 603.94,933.39 607.7,932.98 611.47,932.25 615.19,931.28 618.83,930.03 622.44,928.45 625.88,926.63 
		629.2,924.48 632.44,922.09 634.86,919.91 635.03,919.91 1133.67,444.91 1135.33,443.17 1136.79,441.22 1138.04,439.16 
		1139.01,436.93 1139.78,434.5 1140.23,432.03 1140.39,429.44 1140.23,426.73 1139.74,424.1 1138.93,421.59 1137.88,419.24 
		1136.5,417.01 1134.92,414.99 1133.1,413.17 1131.08,411.55 1128.85,410.21 1126.5,409.12 1123.95,408.31 1121.32,407.83 	"/>
	<g>
		<polygon class="st1" points="917.34,567.2 916.93,563.64 916.25,560.16 915.27,556.67 914.02,553.31 912.48,549.99 910.66,546.84 
			908.6,543.76 906.21,540.85 903.58,538.09 630.65,277.84 627.86,275.41 624.95,273.23 621.91,271.32 618.71,269.7 615.47,268.33 
			612.11,267.24 608.71,266.43 605.27,265.9 601.79,265.62 598.35,265.62 594.87,265.9 591.43,266.43 588.03,267.24 584.67,268.33 
			581.43,269.7 578.23,271.32 575.2,273.23 572.28,275.41 569.49,277.84 296.48,538.09 293.85,540.85 291.51,543.76 289.44,546.84 
			287.62,549.99 286.08,553.31 284.87,556.67 283.89,560.16 283.21,563.64 282.76,567.2 282.64,570.72 282.76,574.28 283.21,577.84 
			283.89,581.33 284.87,584.77 286.08,588.17 287.62,591.45 289.44,594.64 291.51,597.68 293.85,600.6 296.48,603.35 382.38,685.24 
			383.76,686.58 569.49,863.64 572.28,866.07 575.2,868.25 578.23,870.16 581.43,871.78 584.67,873.15 588.03,874.25 591.43,875.06 
			594.87,875.58 598.35,875.86 601.79,875.86 605.27,875.58 608.71,875.06 612.11,874.25 615.47,873.15 618.71,871.78 
			621.91,870.16 624.95,868.25 627.86,866.07 630.65,863.64 816.26,686.62 817.64,685.32 903.58,603.35 906.21,600.6 908.6,597.68 
			910.66,594.64 912.48,591.45 914.02,588.17 915.27,584.77 916.25,581.33 916.93,577.84 917.34,574.28 917.46,570.72 		"/>
	</g>
	<g>
		
			<linearGradient id="SVGID_1_" gradientUnits="userSpaceOnUse" x1="-9180.4932" y1="14185.5752" x2="-9180.4932" y2="13572.5186" gradientTransform="matrix(1 0 0 1 9780.5439 -13315.1826)">
			<stop  offset="0.1378" style="stop-color:#00ADEE"/>
			<stop  offset="1" style="stop-color:#00ADEE"/>
		</linearGradient>
		<polygon class="st2" points="917.34,567.2 916.93,563.64 916.25,560.16 915.27,556.67 914.02,553.31 912.48,549.99 910.66,546.84 
			908.6,543.76 906.21,540.85 903.58,538.09 630.65,277.84 627.86,275.41 624.95,273.23 621.91,271.32 618.71,269.7 615.47,268.33 
			612.11,267.24 608.71,266.43 605.27,265.9 601.79,265.62 598.35,265.62 594.87,265.9 591.43,266.43 588.03,267.24 584.67,268.33 
			581.43,269.7 578.23,271.32 575.2,273.23 572.28,275.41 569.49,277.84 296.48,538.09 293.85,540.85 291.51,543.76 289.44,546.84 
			287.62,549.99 286.08,553.31 284.87,556.67 283.89,560.16 283.21,563.64 282.76,567.2 282.64,570.72 282.76,574.28 283.21,577.84 
			283.89,581.33 284.87,584.77 286.08,588.17 287.62,591.45 289.44,594.64 291.51,597.68 293.85,600.6 296.48,603.35 382.38,685.24 
			383.76,686.58 569.49,863.64 572.28,866.07 575.2,868.25 578.23,870.16 581.43,871.78 584.67,873.15 588.03,874.25 591.43,875.06 
			594.87,875.58 598.35,875.86 601.79,875.86 605.27,875.58 608.71,875.06 612.11,874.25 615.47,873.15 618.71,871.78 
			621.91,870.16 624.95,868.25 627.86,866.07 630.65,863.64 816.26,686.62 817.64,685.32 903.58,603.35 906.21,600.6 908.6,597.68 
			910.66,594.64 912.48,591.45 914.02,588.17 915.27,584.77 916.25,581.33 916.93,577.84 917.34,574.28 917.46,570.72 		"/>
		
			<linearGradient id="SVGID_00000133513638933216000770000015744182954300001210_" gradientUnits="userSpaceOnUse" x1="-9180.4932" y1="14185.5752" x2="-9180.4932" y2="13572.5186" gradientTransform="matrix(1 0 0 1 9780.5439 -13315.1826)">
			<stop  offset="0.1383" style="stop-color:#001E61"/>
			<stop  offset="0.4088" style="stop-color:#001E61"/>
			<stop  offset="0.4798" style="stop-color:#142E6D"/>
			<stop  offset="0.7277" style="stop-color:#576294"/>
			<stop  offset="0.9077" style="stop-color:#8083AC"/>
			<stop  offset="1" style="stop-color:#9090B5"/>
		</linearGradient>
		<polygon style="fill:url(#SVGID_00000133513638933216000770000015744182954300001210_);" points="917.34,567.2 916.93,563.64 
			916.25,560.16 915.27,556.67 914.02,553.31 912.48,549.99 910.66,546.84 908.6,543.76 906.21,540.85 903.58,538.09 630.65,277.84 
			627.86,275.41 624.95,273.23 621.91,271.32 618.71,269.7 615.47,268.33 612.11,267.24 608.71,266.43 605.27,265.9 601.79,265.62 
			598.35,265.62 594.87,265.9 591.43,266.43 588.03,267.24 584.67,268.33 581.43,269.7 578.23,271.32 575.2,273.23 572.28,275.41 
			569.49,277.84 296.48,538.09 293.85,540.85 291.51,543.76 289.44,546.84 287.62,549.99 286.08,553.31 284.87,556.67 
			283.89,560.16 283.21,563.64 282.76,567.2 282.64,570.72 282.76,574.28 283.21,577.84 283.89,581.33 284.87,584.77 286.08,588.17 
			287.62,591.45 289.44,594.64 291.51,597.68 293.85,600.6 296.48,603.35 382.38,685.24 383.76,686.58 569.49,863.64 572.28,866.07 
			575.2,868.25 578.23,870.16 581.43,871.78 584.67,873.15 588.03,874.25 591.43,875.06 594.87,875.58 598.35,875.86 601.79,875.86 
			605.27,875.58 608.71,875.06 612.11,874.25 615.47,873.15 618.71,871.78 621.91,870.16 624.95,868.25 627.86,866.07 
			630.65,863.64 816.26,686.62 817.64,685.32 903.58,603.35 906.21,600.6 908.6,597.68 910.66,594.64 912.48,591.45 914.02,588.17 
			915.27,584.77 916.25,581.33 916.93,577.84 917.34,574.28 917.46,570.72 		"/>
	</g>
	<path class="st4" d="M905.99,569.64c0-8.49-5.78-14.11-14.31-14.11c-8.69,0-14.31,5.62-14.31,14.11c0,8.45,5.62,14.11,14.31,14.11
		C900.21,583.75,905.99,578.09,905.99,569.64z M880.03,569.64c0-7.28,4.65-12.05,11.65-12.05c6.96,0,11.61,4.77,11.61,12.05
		c0,7.2-4.65,11.93-11.61,11.93C884.68,581.57,880.03,576.84,880.03,569.64z M889.05,564.95h2.83c1.33,0,2.39,0.85,2.39,2.06
		c0,1.37-1.13,2.18-2.67,2.18h-2.55V564.95z M889.05,577.12v-5.38h2.63l3.19,5.38h3.6l-3.68-5.98c1.58-0.69,2.71-2.22,2.71-4.12
		c0-2.87-2.1-4.73-5.3-4.73h-6.43v14.84H889.05z"/>
	<g>
		<g>
			<g>
				<path class="st5" d="M357.6,506.53c0,0,0.8-8.37,6.58-10.57c4.34-1.65,9.17-4.39,11.36-3.79c2.19,0.6,4.98,2.19,7.18,9.97
					c2.19,7.78,19.54,66,20.74,68.99s2.19,2.59,3.19-0.2c1-2.79,7.58-39.28,8.17-45.46c0.6-6.18,4.39-28.71,4.79-32.9
					c0.4-4.19,2.59-8.97,6.18-10.77c3.59-1.8,17.15-6.38,21.34-5.58c4.19,0.8,4.98,3.19,3.19,7.98
					c-1.79,4.79-21.14,82.55-22.13,91.12c-1,8.57-6.18,45.86-6.78,49.65s-0.6,11.96-2.19,13.96c-1.59,1.99-7.78,6.38-14.36,5.18
					c-6.58-1.2-11.37-4.79-12.96-11.37c-1.6-6.58-13.36-86.14-14.95-91.72c-1.6-5.58-3.39-14.36-3.99-10.77
					c-0.6,3.59-9.97,66.6-10.77,71.18c-0.8,4.59-1,23.13-6.98,25.12c-6.11,2.04-14.36-1.59-15.15-4.59
					c-0.8-2.99,0.8-8.77,1.99-13.76s12.16-61.01,12.76-67.59S357.4,509.52,357.6,506.53z"/>
				<path class="st5" d="M505.7,580.52c-4.83,30.4-23.54,52.54-41.79,49.44c-18.25-3.1-29.13-30.25-24.3-60.66
					c4.83-30.4,21.54-47.83,41.28-48.64C499.4,519.92,510.53,550.12,505.7,580.52z M479.91,532.65
					c-6.32-0.93-13.92,16.36-16.98,38.61c-3.06,22.26-0.42,41.05,5.9,41.98c6.32,0.93,13.92-16.36,16.98-38.62
					C488.88,552.37,486.23,533.57,479.91,532.65z"/>
				<path class="st5" d="M534.6,551.02c3.27-4.47,8.97-4.19,12.56-2.39s11.78,4.46,14.16,1.2c3.19-4.39,3.99-12.36-4.79-16.55
					c-8.77-4.19-22.73-4.59-35.09,8.17c-12.36,12.76-6.58,31.7,0.2,38.88s18.74,21.73,15.55,31.11
					c-3.19,9.37-10.5,10.86-14.95,10.37c-3.79-0.42-9-5.11-7.98-9.17c2.02-8.02-1.59-10.57-5.98-6.98
					c-4.39,3.59-6.47,14.48-1.99,22.33c5.11,8.96,19.24,12.71,29.06,9.9c9.47-2.71,23.01-12.09,23.58-30.24
					c0.4-12.76-5.78-19.54-9.57-24.53C545.57,578.13,526.56,562,534.6,551.02z"/>
				<path class="st5" d="M632.14,582.98c-3.38,27.85-20.43,48.76-38.07,46.7c-17.64-2.05-29.21-26.29-25.83-54.14
					c3.38-27.85,17.37-43.47,34.96-45.98C623.01,526.73,635.52,555.13,632.14,582.98z M605.4,540.52
					c-6.1-0.58-12.69,15.46-14.71,35.82c-2.02,20.36,0.74,36.4,6.84,36.98c6.11,0.58,13.25-14.52,15.27-34.88
					C614.82,558.08,611.51,541.1,605.4,540.52z"/>
				<path class="st5" d="M677.93,470.52c0,0,0.8-5.78-5.58-4.98c-6.38,0.8-10.37,4.79-12.16,9.57c-1.79,4.79-6.58,26.72-7.38,28.71
					c-0.8,1.99-1.99,2.59-3.59,2.39c-1.6-0.2-12.96-0.6-16.35-0.6c-3.39,0-9.77,2.39-10.17,6.18c-0.4,3.79,4.79,5.58,8.37,6.18
					c3.59,0.6,14.56,1.2,15.55,1.99c1,0.8,1.79,2.19,0.8,5.78c-1,3.59-6.38,32.9-5.38,58.42c1,25.52,8.37,49.85,25.32,46.66
					c16.95-3.19,21.14-23.13,22.13-27.32c1-4.19-0.4-12.16-3.79-12.56c-3.39-0.4-4.59,3.39-6.18,9.77c-1.6,6.38-5.78,9.37-9.37,3.19
					s-5.58-30.75-3.79-56.23c0.99-14.01,2.28-23.15,2.88-25.94c0.6-2.79,1.59-1.99,2.79-2.19c1.2-0.2,18.08-0.92,20.98-0.92
					c3.68,0,9.75-4,7.36-6.79c-2.39-2.79-3.51-3.31-8.49-3.11c-4.98,0.2-8.77-0.28-13.58-0.57c-2.6-0.15-9.62-0.57-8.49-5.09
					c0.72-2.88,5.72-18.79,6.32-22.18C676.73,477.5,677.93,473.51,677.93,470.52z"/>
				<path class="st5" d="M723.36,540.92c0,0,1-13.96-0.2-17.55s-5.98-5.78-11.36-5.38c-5.38,0.4-12.36,1-12.76,8.37
					c-0.4,7.38,5.78,31.3,3.79,46.06c-1.99,14.76-3.99,40.48-3.99,43.87c0,3.39-0.8,6.18,8.18,8.97c8.97,2.79,14.75,0.6,14.75-5.38
					s-0.49-38.22,5.49-52.57c5.98-14.36,11.46-22.99,17.44-25.99c5.98-2.99,8.57-3.59,12.76-2.39c4.19,1.2,6.38-6.18,2.39-10.17
					c-3.99-3.99-10.57-6.78-17.35-4.79c-6.78,1.99-14.76,7.78-19.14,17.75"/>
				<path class="st5" d="M864.05,524.35c-8.38-1.59-28.08-1.44-34.46,17.11c-6.38,18.54,9.45,30.03,14.23,37.6
					c4.79,7.58,12.91,18.7,4.33,30.07c-6.37,8.44-15,6.94-17.8,6.14c-2.79-0.8-7.18-2.99-5.78-9.17c0.12-0.51,0.21-1.01,0.29-1.51
					c0.27-2.85-0.63-5.06-3.63-4.8c-3.29,0.28-6.13,2.42-6.85,5.51c-2.65,11.44,6.59,19.6,15.42,22.69
					c10.31,3.61,29.87-3.34,37.44-16.3c7.58-12.96,7.46-24.98,0.44-34.2c-5.43-7.14-17.88-17.83-20.87-22.42
					c-8.38-16.51,11.27-19.1,14.74-15.91c2.94,2.71,10.82,6.48,13.61,0.69C877.94,534.07,872.42,525.94,864.05,524.35z"/>
				<path class="st5" d="M809.88,536.03c5.18,2.19,4.11,10.63,1.92,19.6c-2.19,8.97-5.38,42.67-4.79,52.44
					c0.6,9.77,0.2,20.14-0.6,23.33c-0.8,3.19-5.18,5.58-7.78,5.38c-2.59-0.2-7.48-1.12-9.77-6.58c-1.76-4.2-1-20.54-1-20.54
					c-0.6,1.59-14.1,19.93-30.31,20.14c-17.61,0.22-17.95-27.46-13.37-47.6c4.59-20.14,23.14-43.92,34.5-46.51
					c11.37-2.59,14.95,2.79,14.95,2.79C795.39,533.28,804.7,533.84,809.88,536.03z M792.96,557.92c0,0,1.45-9.13-0.63-10.57
					c-2.07-1.45-6.63-1.93-15.49,13.69c-10.27,18.11-15.7,36.89-13.58,49.15c2.12,12.25,11.3-0.48,13.27-4.13
					C778.51,602.41,791.47,572.95,792.96,557.92z"/>
			</g>
		</g>
	</g>
</g>
</svg>
